<svg width="689" height="692" viewBox="0 0 689 692" fill="none" xmlns="http://www.w3.org/2000/svg">
<path d="M345.908 0C440.635 9.63318e-05 526.385 38.3985 588.459 100.473L588.436 100.495C650.44 162.569 688.793 248.274 688.793 342.954C688.793 532.384 535.269 685.978 345.839 686.047H345.7C285.611 686.047 229.144 670.586 181.815 644.303L0 692L48.6475 514.337C19.55 463.919 2.88479 405.427 2.88477 343.023C2.88477 153.57 156.478 0 345.908 0ZM345.815 57.9902C188.392 57.9903 60.7588 185.623 60.7588 343.047C60.7589 399.213 77.0047 451.573 104.35 494.54L111.134 505.316L82.3574 610.52L190.237 582.205L200.646 588.366L199.353 587.651C242.112 613.335 292.211 628.104 345.724 628.104H345.839C503.286 628.103 630.872 500.47 630.872 343.047C630.872 185.623 503.239 57.9902 345.815 57.9902ZM389.458 180.238C394.709 175.326 402.67 175.496 407.751 180.577C412.324 185.15 412.833 192.434 409.106 197.685L326.955 312.188L463.986 325.399C478.553 326.755 484.651 344.879 473.811 354.703L298.329 511.89C293.078 516.802 285.118 516.633 280.036 511.552C275.463 506.978 274.954 499.694 278.681 494.443L360.832 379.94L223.801 366.729C209.234 365.373 203.136 347.25 213.977 337.426L389.458 180.238Z" fill="url(#paint0_linear_2201_18)"/>
<defs>
<linearGradient id="paint0_linear_2201_18" x1="623.602" y1="87.74" x2="35.921" y2="666.589" gradientUnits="userSpaceOnUse">
<stop stop-color="#00BD23"/>
<stop offset="1" stop-color="#71FF65"/>
</linearGradient>
</defs>
</svg>
